External Loads File
version=1
nRows=70
nColumns=13
Range=5.000000e-03-10 seconds
endheader
time 	forceRightX 	forceRightY 	forceRightZ 	pointRightX 	pointRightY 	pointRightZ 	forceLeftX 	forceLeftY 	forceLeftZ 	pointLeftX 	pointLeftY 	pointLeftZ 		
2.505000 -1.340012 395.468309 -0.000000 0.422633 0.420196 -0.131813 73.197755 -154.981978 -0.000000 0.173332 0.211230 -0.377540
2.510000 8.936216 440.012025 -0.000000 0.425016 0.414328 -0.131781 78.754654 -139.306501 -0.000000 0.168717 0.217847 -0.377516
2.515000 19.812061 488.669311 -0.000000 0.427000 0.407902 -0.131652 86.992997 -120.444343 -0.000000 0.164358 0.224867 -0.377544
2.520000 30.739496 540.105742 -0.000000 0.428793 0.401112 -0.131400 97.862186 -99.282642 -0.000000 0.160238 0.232222 -0.377737
2.525000 41.208841 592.787200 -0.000000 0.430312 0.393834 -0.131072 111.060393 -76.797661 -0.000000 0.156377 0.239869 -0.377992
2.530000 50.493148 645.227873 -0.000000 0.431674 0.386245 -0.130872 126.106115 -53.900175 -0.000000 0.152908 0.247861 -0.378391
2.535000 57.348750 696.202565 -0.000000 0.432778 0.378444 -0.130781 142.344963 -31.289109 -0.000000 0.149754 0.255927 -0.378535
2.540000 61.572267 744.747296 -0.000000 0.433860 0.370335 -0.130716 158.927390 -9.757131 -0.000000 0.146960 0.264036 -0.378515
2.545000 63.289698 790.289682 -0.000000 0.434570 0.361837 -0.130422 175.088027 9.886615 -0.000000 0.144725 0.272449 -0.378386
2.550000 61.639983 832.761639 -0.000000 0.435128 0.353060 -0.130154 190.183875 27.083599 -0.000000 0.143065 0.280787 -0.378374
2.555000 57.094614 872.303673 -0.000000 0.435543 0.344212 -0.129995 203.650263 41.045707 -0.000000 0.141851 0.289281 -0.378296
2.560000 50.049916 909.228014 -0.000000 0.435700 0.335148 -0.129866 214.930680 51.141284 -0.000000 0.141199 0.297753 -0.378026
2.565000 40.971952 943.897509 -0.000000 0.435448 0.326009 -0.130104 223.456102 56.957330 -0.000000 0.141129 0.306221 -0.377897
2.570000 30.707959 976.685375 -0.000000 0.435065 0.316877 -0.129934 228.726327 58.268657 -0.000000 0.141642 0.314716 -0.377870
2.575000 20.390923 1008.020465 -0.000000 0.434084 0.307670 -0.130004 230.353293 55.072649 -0.000000 0.142670 0.323236 -0.377072
2.580000 10.622805 1038.439232 -0.000000 0.433104 0.298448 -0.130122 228.036717 47.790583 -0.000000 0.144475 0.331786 -0.377167
2.585000 0.671770 1068.549386 -0.000000 0.432002 0.289245 -0.130492 221.607341 37.397358 -0.000000 0.146861 0.340046 -0.377253
2.590000 -8.290012 1098.957185 -0.000000 0.430413 0.280192 -0.130811 211.228440 24.619438 -0.000000 0.149813 0.348263 -0.376980
2.595000 -16.584929 1130.243665 -0.000000 0.428437 0.271072 -0.131141 197.235810 10.555440 -0.000000 0.153304 0.355984 -0.376800
2.600000 -21.731215 1162.942229 -0.000000 0.426068 0.261998 -0.131495 180.169188 -4.208564 -0.000000 0.157378 0.363798 -0.376636
2.605000 -24.455029 1197.399361 -0.000000 0.423266 0.253049 -0.131754 160.637519 -18.581893 -0.000000 0.161949 0.371425 -0.376406
2.610000 -23.828713 1233.754174 -0.000000 0.419766 0.244213 -0.131846 139.334952 -31.912979 -0.000000 0.167132 0.378703 -0.376171
2.615000 -19.679619 1271.815541 -0.000000 0.416044 0.235536 -0.132071 116.995613 -43.663178 -0.000000 0.172569 0.385927 -0.376047
2.620000 -12.075269 1311.022613 -0.000000 0.411832 0.227159 -0.132271 94.343052 -53.541723 -0.000000 0.178334 0.392870 -0.376013
2.625000 0.479863 1350.488879 -0.000000 0.406986 0.219124 -0.132321 71.928767 -61.545554 -0.000000 0.184471 0.399654 -0.375950
2.630000 18.518493 1389.042178 -0.000000 0.401822 0.211119 -0.132577 50.205961 -67.587402 -0.000000 0.190932 0.406275 -0.375746
2.635000 41.116317 1425.353443 -0.000000 0.396244 0.203633 -0.132793 29.632172 -71.490812 -0.000000 0.197843 0.412726 -0.375697
2.640000 68.279680 1457.971049 -0.000000 0.390317 0.196243 -0.133028 10.594189 -73.130603 -0.000000 0.204874 0.418998 -0.375640
2.645000 98.159385 1485.419823 -0.000000 0.383991 0.189270 -0.133250 -6.471742 -72.432386 -0.000000 0.212094 0.424801 -0.375471
2.650000 129.671563 1506.135596 -0.000000 0.377600 0.182826 -0.133768 -21.251910 -69.465412 -0.000000 0.219481 0.430453 -0.375349
2.655000 165.395511 1518.080784 -0.000000 0.370729 0.176521 -0.133952 -33.712371 -64.332891 -0.000000 0.227081 0.435993 -0.375118
2.660000 203.621958 1519.398300 -0.000000 0.363345 0.170690 -0.133745 -43.742521 -57.264420 -0.000000 0.234887 0.441348 -0.374842
2.665000 238.982841 1508.872361 -0.000000 0.356225 0.165364 -0.134237 -51.272622 -48.735629 -0.000000 0.242792 0.446356 -0.374566
2.670000 273.741638 1484.450183 -0.000000 0.348737 0.160356 -0.134460 -56.692059 -39.065808 -0.000000 0.250786 0.451131 -0.374243
2.675000 305.095258 1445.138664 -0.000000 0.341229 0.155839 -0.134762 -60.354904 -28.698942 -0.000000 0.258942 0.455780 -0.373985
2.680000 331.183046 1390.467733 -0.000000 0.333597 0.151791 -0.134951 -62.747987 -17.958318 -0.000000 0.267123 0.459971 -0.373794
2.685000 350.549803 1320.720155 -0.000000 0.326076 0.148170 -0.135105 -64.381056 -7.061583 -0.000000 0.275431 0.463890 -0.373302
2.690000 361.937667 1237.093503 -0.000000 0.318653 0.145142 -0.135303 -65.727443 3.787783 -0.000000 0.283784 0.467469 -0.373031
2.695000 365.383673 1141.398741 -0.000000 0.311349 0.142407 -0.135447 -67.192518 14.380451 -0.000000 0.292284 0.470496 -0.372722
2.700000 362.245236 1035.840396 -0.000000 0.303872 0.140193 -0.135751 -69.068458 24.504241 -0.000000 0.301041 0.473240 -0.371926
2.705000 349.830295 924.722909 -0.000000 0.296604 0.138426 -0.136076 -71.670866 33.598232 -0.000000 0.309397 0.475381 -0.371576
2.710000 331.676242 810.664864 -0.000000 0.289331 0.137202 -0.136359 -75.112444 41.462205 -0.000000 0.317897 0.477179 -0.371294
2.715000 308.461113 697.406927 -0.000000 0.282120 0.136439 -0.136667 -79.489478 47.754978 -0.000000 0.326353 0.478507 -0.371119
2.720000 281.875147 588.093566 -0.000000 0.274956 0.136143 -0.137007 -84.782724 52.372229 -0.000000 0.334797 0.479376 -0.370841
2.725000 253.574944 485.306189 -0.000000 0.267761 0.136307 -0.137300 -90.869463 55.457157 -0.000000 0.343238 0.479854 -0.370492
2.730000 224.810158 391.014333 -0.000000 0.260564 0.136921 -0.137520 -97.544703 57.339634 -0.000000 0.351500 0.479532 -0.370149
2.735000 196.591184 306.422865 -0.000000 0.253577 0.138036 -0.137776 -104.540810 58.452658 -0.000000 0.359663 0.479039 -0.369602
2.740000 170.092235 231.742980 -0.000000 0.246566 0.139282 -0.138169 -111.512155 59.374588 -0.000000 0.367616 0.477925 -0.368970
2.745000 145.960461 166.764347 -0.000000 0.239660 0.141138 -0.138382 -118.213031 60.605679 -0.000000 0.375313 0.476477 -0.368466
2.750000 124.875882 110.711116 -0.000000 0.232581 0.143747 -0.138894 -124.401915 62.885803 -0.000000 0.382850 0.474315 -0.368064
2.755000 106.839229 63.171306 -0.000000 0.225636 0.146864 -0.139290 -130.166734 66.665651 -0.000000 0.390049 0.471633 -0.367765
2.760000 92.049720 23.493362 -0.000000 0.218731 0.150296 -0.139796 -135.634459 72.711919 -0.000000 0.396746 0.468217 -0.367548
2.765000 80.525523 -8.930006 -0.000000 0.211952 0.154313 -0.140026 -141.020084 81.998649 -0.000000 0.403139 0.464327 -0.367528
2.770000 72.118245 -34.547582 -0.000000 0.205497 0.159439 -0.140397 -146.628194 95.569642 -0.000000 0.409015 0.459892 -0.367598
2.775000 66.593105 -53.697535 -0.000000 0.198977 0.164741 -0.140623 -152.687056 114.554321 -0.000000 0.414574 0.454631 -0.367945
2.780000 63.803976 -66.478808 -0.000000 0.192652 0.170064 -0.140812 -159.643911 139.563405 -0.000000 0.419615 0.448970 -0.367887
2.785000 63.366682 -73.232463 -0.000000 0.186665 0.176024 -0.140979 -167.576119 171.359655 -0.000000 0.424136 0.442845 -0.368090
2.790000 64.900096 -74.278291 -0.000000 0.181007 0.182285 -0.141240 -176.708724 210.004778 -0.000000 0.427940 0.436206 -0.368531
2.795000 67.926947 -70.193107 -0.000000 0.175530 0.188889 -0.141380 -186.890571 255.323948 -0.000000 0.431385 0.429183 -0.369045
2.800000 72.133379 -61.759672 -0.000000 0.170485 0.195860 -0.141647 -198.081310 306.533151 -0.000000 0.434474 0.421592 -0.369542
2.805000 77.221661 -50.069702 -0.000000 0.165740 0.203223 -0.141909 -210.187010 362.560941 -0.000000 0.437166 0.413555 -0.370005
2.810000 82.763143 -36.477703 -0.000000 0.161217 0.211220 -0.142233 -222.555657 422.402037 -0.000000 0.439503 0.404929 -0.370424
2.815000 88.277314 -22.154425 -0.000000 0.156784 0.219252 -0.142685 -235.069599 484.594890 -0.000000 0.441643 0.395640 -0.370944
2.820000 93.092173 -7.972890 -0.000000 0.153128 0.227971 -0.142995 -247.993754 547.555293 -0.000000 0.443480 0.386338 -0.371237
2.825000 96.465650 5.465830 -0.000000 0.149908 0.237295 -0.143276 -261.090221 610.127976 -0.000000 0.444993 0.377186 -0.371285
2.830000 97.913852 18.062788 -0.000000 0.147188 0.246423 -0.143306 -274.662013 671.255602 -0.000000 0.446195 0.367680 -0.371253
2.835000 97.441218 29.957266 -0.000000 0.145089 0.255714 -0.143427 -288.465276 730.585470 -0.000000 0.447047 0.358034 -0.371183
2.840000 95.588512 41.472054 -0.000000 0.143499 0.265014 -0.143380 -302.540553 788.110575 -0.000000 0.447574 0.348188 -0.371057
2.845000 93.264626 52.877192 -0.000000 0.142581 0.274367 -0.143275 -317.298786 844.070230 -0.000000 0.447692 0.338268 -0.370923
2.850000 91.467949 64.127947 -0.000000 0.142280 0.283686 -0.143150 -333.018035 899.056410 -0.000000 0.447355 0.328263 -0.370592
